<svg viewBox="0 0 1017 1045.491" xmlns="http://www.w3.org/2000/svg"><path d="M115.933 1045.2h-66.12c.23-110.898 26.816-215.534 73.82-308.05l-1.793 3.893c6.17-13.224 12.52-26.45 18.646-38.923 8.816-18.426 17.632-35.794 24.773-52.897l.704-1.63.882-1.544c31.002-55.09 49.98-120.62 51.784-190.42l.01-.54c-5.082-148.717-34.898-289.002-85.443-418.93l2.968 8.67 61.713-23.495c50.193 127.843 81.61 275.75 86.824 430.303l.06 2.22v1.85c-2.007 81.13-23.718 156.767-60.503 222.865l1.256-2.46c-7.802 18.426-16.883 36.94-25.61 54.837-6.04 12.343-12.3 25.126-18.206 37.954l-.485 1.014c-41.003 80.194-65.104 174.904-65.284 275.227v.06zm843.268.177l-66.12-.31c.003-.757.005-1.655.005-2.552 0-97.68-22.783-190.038-63.325-272.05l1.607 3.594v-.354c-9.125-19.22-18.514-37.954-27.55-56.115-6.305-12.606-12.873-25.654-19.044-38.438-35.94-63.807-57.965-139.705-60.113-220.558l-.013-.64v-1.807c4.698-157.443 35.987-306.22 89.505-443.895l-3.106 9.08 61.713 23.54c-47.926 121.92-77.776 262.983-82.427 410.403l-.05 1.973c2.03 70.252 21.148 135.618 53.317 192.644l-1.08-2.082.838 1.63c6.17 12.652 12.43 25.26 19.087 38.528 9.213 18.382 18.734 37.425 28.124 57.305 43.298 87.03 68.636 189.55 68.636 297.99 0 .743 0 1.485-.004 2.228v-.113zm-782.92-422.78l27.64 7.053c90.144 24.012 193.64 37.81 300.358 37.82h.01c106.723-.01 210.22-13.808 308.812-39.705l-8.445 1.885 25.523-6.524 15.56 30.195c14.9 28.918 30.285 58.85 45.36 92.57l10.447 23.54-301.514 236.318c-25.91 20.285-58.946 32.552-94.846 32.62h-.632c-36.508-.09-70.046-12.73-96.545-33.833l.316.243h-.22L110.865 764.713l10.756-23.363c6.26-13.577 12.652-26.713 18.868-39.408 8.816-18.426 17.632-35.794 24.773-52.897zm643.58 127.04c-8.154-17.235-16.397-33.633-24.596-49.634-87.39 21.326-187.727 33.57-290.92 33.59h-.014c-102.734-.003-202.638-12.117-298.362-34.993l8.707 1.756c-4.85 10.315-9.83 20.586-14.767 30.636l-7.23 14.81 256.905 207.49c15.024 11.94 34.258 19.173 55.18 19.22h.45c20.508-.03 39.376-7.028 54.37-18.75l-.194.147zm-282.513-294.68h-66.12v-84.635h66.12zm-490.62 125.19L0 533.42l78.464-78.463L0 376.493l46.726-46.726 125.19 125.19zm923.053 0l-125.19-125.19 125.19-125.19 46.726 46.726-78.464 78.464 78.464 78.464z"/></svg>